<svg width="208" height="49" viewBox="0 0 208 49" fill="none" xmlns="http://www.w3.org/2000/svg">
<path d="M2.6398 31C2.1118 31 1.6918 30.88 1.3798 30.64C1.0918 30.376 0.9478 30.076 0.9478 29.74V5.944C0.9478 5.536 1.1278 5.224 1.4878 5.008C1.8478 4.792 2.2318 4.684 2.6398 4.684H9.1918C10.4878 4.684 11.6878 4.852 12.7918 5.188C13.8958 5.524 14.7838 6.148 15.4558 7.06C16.1278 7.948 16.4638 9.232 16.4638 10.912C16.4638 12.424 16.1878 13.672 15.6358 14.656C15.1078 15.64 14.3638 16.336 13.4038 16.744C14.5078 17.176 15.3958 17.836 16.0678 18.724C16.7638 19.588 17.1118 20.932 17.1118 22.756V23.44C17.1118 25.288 16.7998 26.764 16.1758 27.868C15.5518 28.972 14.6878 29.776 13.5838 30.28C12.5038 30.76 11.3038 31 9.9838 31H2.6398ZM4.7638 27.616H9.2278C10.4998 27.616 11.4958 27.268 12.2158 26.572C12.9358 25.852 13.2958 24.712 13.2958 23.152V22.576C13.2958 20.992 12.9358 19.876 12.2158 19.228C11.4958 18.58 10.4998 18.256 9.2278 18.256H4.7638V27.616ZM4.7638 15.196H9.0478C11.4478 15.196 12.6478 13.972 12.6478 11.524C12.6478 10.324 12.3118 9.448 11.6398 8.896C10.9918 8.344 10.1038 8.068 8.9758 8.068H4.7638V15.196ZM23.6542 31C23.1262 31 22.5982 30.856 22.0702 30.568C21.5422 30.256 21.2782 29.872 21.2782 29.416C21.2782 29.32 21.2902 29.212 21.3142 29.092L28.4782 5.764C28.6222 5.332 28.9222 5.008 29.3782 4.792C29.8582 4.576 30.3622 4.468 30.8902 4.468C31.4422 4.468 31.9462 4.576 32.4022 4.792C32.8822 5.008 33.1942 5.332 33.3382 5.764L40.4662 29.092C40.5142 29.212 40.5382 29.32 40.5382 29.416C40.5382 29.872 40.2622 30.256 39.7102 30.568C39.1822 30.856 38.6542 31 38.1262 31C37.8142 31 37.5382 30.94 37.2982 30.82C37.0582 30.7 36.9022 30.496 36.8302 30.208L35.3542 25.096H26.4622L24.9862 30.208C24.8902 30.496 24.7222 30.7 24.4822 30.82C24.2422 30.94 23.9662 31 23.6542 31ZM27.2902 22.036H34.4902L30.8902 9.688L27.2902 22.036ZM47.6139 31C47.1339 31 46.6899 30.892 46.2819 30.676C45.8979 30.46 45.7059 30.136 45.7059 29.704V5.944C45.7059 5.512 45.8979 5.2 46.2819 5.008C46.6899 4.792 47.1339 4.684 47.6139 4.684C48.3099 4.684 48.8499 4.84 49.2339 5.152C49.6419 5.464 50.0619 6.028 50.4939 6.844L58.4859 22.432V5.908C58.4859 5.476 58.6779 5.164 59.0619 4.972C59.4699 4.78 59.9139 4.684 60.3939 4.684C60.8739 4.684 61.3059 4.78 61.6899 4.972C62.0979 5.164 62.3019 5.476 62.3019 5.908V29.704C62.3019 30.136 62.0979 30.46 61.6899 30.676C61.3059 30.892 60.8739 31 60.3939 31C59.3859 31 58.6299 30.52 58.1259 29.56L49.5219 13.216V29.704C49.5219 30.136 49.3179 30.46 48.9099 30.676C48.5259 30.892 48.0939 31 47.6139 31ZM71.0778 31C70.5738 31 70.1658 30.88 69.8538 30.64C69.5418 30.376 69.3858 30.076 69.3858 29.74V5.908C69.3858 5.596 69.5418 5.32 69.8538 5.08C70.1658 4.816 70.5738 4.684 71.0778 4.684H77.4498C78.9618 4.684 80.3298 4.948 81.5538 5.476C82.7778 6.004 83.7498 6.856 84.4698 8.032C85.1898 9.208 85.5498 10.768 85.5498 12.712V22.936C85.5498 24.904 85.1898 26.476 84.4698 27.652C83.7498 28.828 82.7778 29.68 81.5538 30.208C80.3298 30.736 78.9618 31 77.4498 31H71.0778ZM73.2018 27.616H77.4498C78.7938 27.616 79.8378 27.232 80.5818 26.464C81.3498 25.696 81.7338 24.52 81.7338 22.936V12.712C81.7338 11.128 81.3498 9.964 80.5818 9.22C79.8378 8.452 78.7938 8.068 77.4498 8.068H73.2018V27.616ZM94.0545 31C93.6465 31 93.2625 30.892 92.9025 30.676C92.5425 30.46 92.3625 30.136 92.3625 29.704V5.944C92.3625 5.536 92.5425 5.224 92.9025 5.008C93.2625 4.792 93.6465 4.684 94.0545 4.684H106.87C107.302 4.684 107.614 4.864 107.806 5.224C108.022 5.584 108.13 5.956 108.13 6.34C108.13 6.796 108.022 7.204 107.806 7.564C107.59 7.9 107.278 8.068 106.87 8.068H96.1785V16.276H101.722C102.13 16.276 102.442 16.444 102.658 16.78C102.874 17.092 102.982 17.452 102.982 17.86C102.982 18.196 102.874 18.532 102.658 18.868C102.466 19.18 102.154 19.336 101.722 19.336H96.1785V27.616H106.87C107.278 27.616 107.59 27.796 107.806 28.156C108.022 28.492 108.13 28.888 108.13 29.344C108.13 29.728 108.022 30.1 107.806 30.46C107.614 30.82 107.302 31 106.87 31H94.0545ZM119.742 31.216C118.134 31.216 116.706 30.94 115.458 30.388C114.234 29.812 113.274 29.008 112.578 27.976C111.882 26.944 111.534 25.732 111.534 24.34C111.534 23.62 111.69 23.14 112.002 22.9C112.338 22.636 112.83 22.504 113.478 22.504C113.958 22.504 114.378 22.6 114.738 22.792C115.122 22.96 115.326 23.284 115.35 23.764C115.398 24.844 115.746 25.792 116.394 26.608C117.042 27.424 118.11 27.832 119.598 27.832C120.966 27.832 122.022 27.448 122.766 26.68C123.534 25.912 123.918 24.736 123.918 23.152V8.068H119.706C119.298 8.068 118.986 7.9 118.77 7.564C118.554 7.204 118.446 6.796 118.446 6.34C118.446 5.956 118.542 5.584 118.734 5.224C118.926 4.864 119.25 4.684 119.706 4.684H126.042C126.45 4.684 126.834 4.792 127.194 5.008C127.554 5.224 127.734 5.536 127.734 5.944V23.152C127.734 25.12 127.374 26.692 126.654 27.868C125.934 29.044 124.974 29.896 123.774 30.424C122.574 30.952 121.23 31.216 119.742 31.216ZM135.093 31C134.565 31 134.037 30.856 133.509 30.568C132.981 30.256 132.717 29.872 132.717 29.416C132.717 29.32 132.729 29.212 132.753 29.092L139.917 5.764C140.061 5.332 140.361 5.008 140.817 4.792C141.297 4.576 141.801 4.468 142.329 4.468C142.881 4.468 143.385 4.576 143.841 4.792C144.321 5.008 144.633 5.332 144.777 5.764L151.905 29.092C151.953 29.212 151.977 29.32 151.977 29.416C151.977 29.872 151.701 30.256 151.149 30.568C150.621 30.856 150.093 31 149.565 31C149.253 31 148.977 30.94 148.737 30.82C148.497 30.7 148.341 30.496 148.269 30.208L146.793 25.096H137.901L136.425 30.208C136.329 30.496 136.161 30.7 135.921 30.82C135.681 30.94 135.405 31 135.093 31ZM138.729 22.036H145.929L142.329 9.688L138.729 22.036Z" fill="white"/>
<path d="M1.84056 48C1.62723 48 1.4299 47.952 1.24856 47.856C1.07789 47.76 0.992562 47.616 0.992562 47.424V36.848C0.992562 36.7093 1.05123 36.5867 1.16856 36.48C1.29656 36.3627 1.45656 36.304 1.64856 36.304H4.76856C5.41923 36.304 6.01123 36.4213 6.54456 36.656C7.0779 36.88 7.49923 37.2533 7.80856 37.776C8.1179 38.288 8.27256 38.9707 8.27256 39.824V39.952C8.27256 40.8053 8.11256 41.4933 7.79256 42.016C7.47256 42.5387 7.04056 42.9173 6.49656 43.152C5.95256 43.376 5.34456 43.488 4.67256 43.488H2.68856V47.424C2.68856 47.616 2.59789 47.76 2.41656 47.856C2.2459 47.952 2.0539 48 1.84056 48ZM2.68856 42.128H4.67256C5.2699 42.128 5.7339 41.9627 6.06456 41.632C6.4059 41.2907 6.57656 40.768 6.57656 40.064V39.872C6.57656 39.168 6.4059 38.6507 6.06456 38.32C5.7339 37.9787 5.2699 37.808 4.67256 37.808H2.68856V42.128ZM19.0699 48C18.8353 48 18.6006 47.936 18.3659 47.808C18.1313 47.6693 18.0139 47.4987 18.0139 47.296C18.0139 47.2533 18.0193 47.2053 18.0299 47.152L21.2139 36.784C21.2779 36.592 21.4113 36.448 21.6139 36.352C21.8273 36.256 22.0513 36.208 22.2859 36.208C22.5313 36.208 22.7553 36.256 22.9579 36.352C23.1713 36.448 23.3099 36.592 23.3739 36.784L26.5419 47.152C26.5633 47.2053 26.5739 47.2533 26.5739 47.296C26.5739 47.4987 26.4513 47.6693 26.2059 47.808C25.9713 47.936 25.7366 48 25.5019 48C25.3633 48 25.2406 47.9733 25.1339 47.92C25.0273 47.8667 24.9579 47.776 24.9259 47.648L24.2699 45.376H20.3179L19.6619 47.648C19.6193 47.776 19.5446 47.8667 19.4379 47.92C19.3313 47.9733 19.2086 48 19.0699 48ZM20.6859 44.016H23.8859L22.2859 38.528L20.6859 44.016ZM38.3427 48C38.1187 48 37.9373 47.9467 37.7987 47.84C37.66 47.7227 37.5907 47.5893 37.5907 47.44V36.848C37.5907 36.7093 37.66 36.5867 37.7987 36.48C37.9373 36.3627 38.1187 36.304 38.3427 36.304H41.1747C41.8467 36.304 42.4547 36.4213 42.9987 36.656C43.5427 36.8907 43.9747 37.2693 44.2947 37.792C44.6147 38.3147 44.7747 39.008 44.7747 39.872V44.416C44.7747 45.2907 44.6147 45.9893 44.2947 46.512C43.9747 47.0347 43.5427 47.4133 42.9987 47.648C42.4547 47.8827 41.8467 48 41.1747 48H38.3427ZM39.2867 46.496H41.1747C41.772 46.496 42.236 46.3253 42.5667 45.984C42.908 45.6427 43.0787 45.12 43.0787 44.416V39.872C43.0787 39.168 42.908 38.6507 42.5667 38.32C42.236 37.9787 41.772 37.808 41.1747 37.808H39.2867V46.496ZM57.2746 48C57.0932 48 56.9226 47.952 56.7626 47.856C56.6026 47.76 56.5226 47.616 56.5226 47.424V36.864C56.5226 36.6827 56.6026 36.544 56.7626 36.448C56.9226 36.352 57.0932 36.304 57.2746 36.304H62.9706C63.1626 36.304 63.3012 36.384 63.3866 36.544C63.4826 36.704 63.5306 36.8693 63.5306 37.04C63.5306 37.2427 63.4826 37.424 63.3866 37.584C63.2906 37.7333 63.1519 37.808 62.9706 37.808H58.2186V41.456H60.6826C60.8639 41.456 61.0026 41.5307 61.0986 41.68C61.1946 41.8187 61.2426 41.9787 61.2426 42.16C61.2426 42.3093 61.1946 42.4587 61.0986 42.608C61.0132 42.7467 60.8746 42.816 60.6826 42.816H58.2186V46.496H62.9706C63.1519 46.496 63.2906 46.576 63.3866 46.736C63.4826 46.8853 63.5306 47.0613 63.5306 47.264C63.5306 47.4347 63.4826 47.6 63.3866 47.76C63.3012 47.92 63.1626 48 62.9706 48H57.2746ZM75.3939 48C75.2126 48 75.0419 47.952 74.8819 47.856C74.7219 47.76 74.6419 47.616 74.6419 47.424V36.848C74.6419 36.656 74.7273 36.5173 74.8979 36.432C75.0793 36.3467 75.2766 36.304 75.4899 36.304C75.7033 36.304 75.8953 36.3467 76.0659 36.432C76.2473 36.5173 76.3379 36.656 76.3379 36.848V46.496H80.4979C80.6686 46.496 80.7966 46.576 80.8819 46.736C80.9673 46.8853 81.0099 47.056 81.0099 47.248C81.0099 47.44 80.9673 47.616 80.8819 47.776C80.7966 47.9253 80.6686 48 80.4979 48H75.3939ZM105.807 48C105.593 48 105.396 47.952 105.215 47.856C105.044 47.76 104.959 47.616 104.959 47.424V36.848C104.959 36.656 105.044 36.5173 105.215 36.432C105.396 36.3467 105.593 36.304 105.807 36.304C106.02 36.304 106.212 36.3467 106.383 36.432C106.564 36.5173 106.655 36.656 106.655 36.848V41.248H110.639V36.848C110.639 36.656 110.724 36.5173 110.895 36.432C111.076 36.3467 111.273 36.304 111.487 36.304C111.7 36.304 111.892 36.3467 112.063 36.432C112.244 36.5173 112.335 36.656 112.335 36.848V47.424C112.335 47.616 112.244 47.76 112.063 47.856C111.892 47.952 111.7 48 111.487 48C111.273 48 111.076 47.952 110.895 47.856C110.724 47.76 110.639 47.616 110.639 47.424V42.608H106.655V47.424C106.655 47.616 106.564 47.76 106.383 47.856C106.212 47.952 106.02 48 105.807 48ZM127.803 48.096C127.121 48.096 126.502 47.9787 125.947 47.744C125.393 47.5093 124.955 47.1307 124.635 46.608C124.315 46.0853 124.155 45.3867 124.155 44.512V36.848C124.155 36.656 124.241 36.5173 124.411 36.432C124.582 36.3467 124.779 36.304 125.003 36.304C125.206 36.304 125.398 36.3467 125.579 36.432C125.761 36.5173 125.851 36.656 125.851 36.848V44.512C125.851 45.216 126.022 45.7387 126.363 46.08C126.705 46.4213 127.185 46.592 127.803 46.592C128.411 46.592 128.891 46.4213 129.243 46.08C129.595 45.7387 129.771 45.216 129.771 44.512V36.848C129.771 36.656 129.857 36.5173 130.027 36.432C130.198 36.3467 130.395 36.304 130.619 36.304C130.822 36.304 131.014 36.3467 131.195 36.432C131.377 36.5173 131.467 36.656 131.467 36.848V44.512C131.467 45.3867 131.302 46.0853 130.971 46.608C130.651 47.1307 130.214 47.5093 129.659 47.744C129.105 47.9787 128.486 48.096 127.803 48.096ZM144.028 48C143.793 48 143.606 47.9467 143.468 47.84C143.34 47.7227 143.276 47.5893 143.276 47.44V36.864C143.276 36.6827 143.356 36.544 143.516 36.448C143.676 36.352 143.846 36.304 144.028 36.304H146.94C147.516 36.304 148.049 36.3787 148.54 36.528C149.03 36.6773 149.425 36.9547 149.724 37.36C150.022 37.7547 150.172 38.3253 150.172 39.072C150.172 39.744 150.049 40.2987 149.804 40.736C149.569 41.1733 149.238 41.4827 148.812 41.664C149.302 41.856 149.697 42.1493 149.996 42.544C150.305 42.928 150.46 43.5253 150.46 44.336V44.64C150.46 45.4613 150.321 46.1173 150.044 46.608C149.766 47.0987 149.382 47.456 148.892 47.68C148.412 47.8933 147.878 48 147.292 48H144.028ZM144.972 46.496H146.956C147.521 46.496 147.964 46.3413 148.284 46.032C148.604 45.712 148.764 45.2053 148.764 44.512V44.256C148.764 43.552 148.604 43.056 148.284 42.768C147.964 42.48 147.521 42.336 146.956 42.336H144.972V46.496ZM144.972 40.976H146.876C147.942 40.976 148.476 40.432 148.476 39.344C148.476 38.8107 148.326 38.4213 148.028 38.176C147.74 37.9307 147.345 37.808 146.844 37.808H144.972V40.976Z" fill="#A6CE38"/>
<path d="M173.066 10.1916C173.508 9.88273 174.084 8.06193 173.863 6.41137C173.719 4.99514 173.456 5.26435 173.147 3.13035C173.013 2.31044 173.151 1.17656 174.171 0.260813C174.448 0.174226 174.563 0.140838 175.011 0.059864C172.181 0.487663 170 3.17232 170 6.42091C170 8.08836 170.575 9.60719 171.517 10.7486C172.102 10.7588 172.537 10.5956 173.066 10.1916Z" fill="url(#paint0_radial)"/>
<path d="M180.713 2.99334C180.836 4.60447 180.886 5.97719 180.54 7.30994C180.077 8.75615 179.088 10.4635 179.207 10.9251C179.196 11.1396 179.186 11.3633 179.273 11.5694C180.69 10.3987 181.608 8.52839 181.608 6.42086C181.608 5.16049 181.28 3.98513 180.713 2.99334Z" fill="url(#paint1_radial)"/>
<path d="M178.965 11.7994C178.903 11.5484 178.886 11.2772 178.906 11.0363C179.018 10.12 179.331 9.42495 179.735 8.58917C179.991 8.02369 180.137 7.45827 180.338 6.89284C180.583 6.05332 180.573 4.69197 180.364 2.44792C179.301 0.957103 177.654 0 175.804 0C175.538 0 175.277 0.0201952 175.021 0.0584754C173.322 1.33563 173.511 2.38522 173.62 3.20503C173.678 4.36572 174.242 4.95864 174.386 6.43046C174.607 8.13652 173.914 10.1947 173.472 10.5035C172.944 10.9067 172.469 11.1647 171.884 11.1561C172.917 12.2028 174.293 12.8417 175.804 12.8417C176.989 12.8417 178.09 12.4489 179.009 11.7749C178.994 11.7836 178.98 11.7919 178.965 11.7994Z" fill="url(#paint2_radial)"/>
<path d="M203.615 19.8963C208.545 14.1381 208.643 7.47892 204.34 4.45946C200.037 1.44 192.938 3.18728 188.009 8.94541C185.382 12.0147 184.01 15.476 183.952 18.4985L183.834 18.4904C183.831 18.5404 183.476 23.5103 182.806 25.6299C182.284 27.2864 181.275 29.1094 180.855 29.8354L180.58 29.6421L180.372 29.8843L171.659 40.0633L170.762 40.2408L170.688 40.327L170 41.1309L173.763 43.7714L174.584 42.8119L174.453 41.8834L183.299 31.5504L183.075 31.3932C183.746 30.8432 185.447 29.506 187.086 28.6335C189.185 27.5167 194.413 25.966 194.467 25.9513L194.424 25.8319C197.637 25.0272 200.992 22.9614 203.615 19.8963ZM189.074 9.69291C189.236 9.50346 189.406 9.32927 189.572 9.14913L190.288 9.65158L188.867 11.3107L188.181 10.8289C188.46 10.4459 188.755 10.0659 189.074 9.69291ZM189.303 11.6166L190.723 9.95755L192.556 11.243L191.135 12.9023L189.303 11.6166ZM190.797 13.2969L189.376 14.9571L187.544 13.6717L188.965 12.0114L190.797 13.2969ZM191.061 9.56309L192.481 7.904L194.313 9.18942L192.893 10.8487L191.061 9.56309ZM192.82 7.50907L194.24 5.84931L196.072 7.13494L194.652 8.7947L192.82 7.50907ZM194.578 5.45448L194.678 5.33734C195.479 4.96434 196.281 4.69178 197.072 4.5027L197.855 5.05221L196.41 6.74011L194.578 5.45448ZM192.046 7.59818L190.625 9.25733L189.924 8.76491C190.459 8.21819 191.015 7.72459 191.583 7.27365L192.046 7.59818ZM192.015 6.94435C192.468 6.60709 192.928 6.30097 193.392 6.02515L192.384 7.20326L192.015 6.94435ZM188.529 11.7057L187.108 13.3659L186.764 13.1247C187.087 12.4965 187.461 11.872 187.886 11.2538L188.529 11.7057ZM186.771 13.7603L186.141 14.4952C186.26 14.1947 186.388 13.8934 186.53 13.5912L186.771 13.7603ZM187.206 14.066L189.039 15.3516L187.617 17.012L185.785 15.7264L187.206 14.066ZM198.852 12.3743L197.432 14.0336L195.598 12.7466L197.018 11.0874L198.852 12.3743ZM197.356 10.6924L198.777 9.03282L200.611 10.3197L199.19 11.9795L197.356 10.6924ZM197.095 14.428L195.674 16.0871L193.84 14.8001L195.26 13.1409L197.095 14.428ZM195.336 16.4819L193.915 18.1421L192.081 16.8551L193.502 15.195L195.336 16.4819ZM193.577 18.5364L192.156 20.1969L190.322 18.9098L191.743 17.2495L193.577 18.5364ZM191.819 20.5902L190.419 22.226L188.585 20.9391L189.985 19.3031L191.819 20.5902ZM200.949 9.92492L199.115 8.638L200.56 6.95004L202.394 8.23697L200.949 9.92492ZM198.341 8.72654L196.92 10.3864L195.088 9.10098L196.509 7.44106L198.341 8.72654ZM196.847 7.04624L198.292 5.35829L200.123 6.64376L198.679 8.33172L196.847 7.04624ZM196.582 10.7812L195.162 12.4403L193.33 11.1549L194.75 9.49581L196.582 10.7812ZM194.824 12.8348L193.404 14.4939L191.572 13.2084L192.992 11.5493L194.824 12.8348ZM193.066 14.8887L191.645 16.5489L189.812 15.2635L191.234 13.6032L193.066 14.8887ZM191.307 16.9433L189.886 18.6037L188.054 17.3182L189.475 15.6579L191.307 16.9433ZM189.549 18.997L188.148 20.6329L186.316 19.3473L187.717 17.7115L189.549 18.997ZM198.629 4.96388L199.272 4.21328C200.188 4.20097 201.062 4.32996 201.87 4.60381L200.462 6.24946L198.629 4.96388ZM187.811 21.0277L186.431 22.639C185.955 21.9776 185.627 21.2099 185.446 20.3642L185.978 19.7421L187.811 21.0277ZM188.247 21.3338L190.081 22.6209L188.567 24.3901C188.264 24.2493 187.971 24.0913 187.698 23.9001C187.347 23.6538 187.048 23.3643 186.774 23.055L188.247 21.3338ZM192.591 20.5022L194.013 18.8418L195.847 20.1285L194.425 21.7888L192.591 20.5022ZM194.088 22.1821L192.688 23.818L190.854 22.5315L192.255 20.8955L194.088 22.1821ZM194.35 18.4475L195.771 16.7874L197.605 18.0739L196.184 19.7342L194.35 18.4475ZM196.109 16.3924L197.53 14.7333L199.363 16.0201L197.943 17.6792L196.109 16.3924ZM197.867 14.3389L199.288 12.6797L201.121 13.9665L199.701 15.6256L197.867 14.3389ZM199.626 12.2848L201.047 10.6252L202.88 11.9118L201.459 13.5715L199.626 12.2848ZM201.384 10.2304L202.829 8.54247L204.663 9.82908L203.218 11.517L201.384 10.2304ZM192.35 24.2129L191.674 25.0026C190.751 25.0159 189.877 24.8867 189.082 24.602L190.516 22.9263L192.35 24.2129ZM203.167 8.14785L204.625 6.44449C205.143 7.05265 205.526 7.75619 205.774 8.53161L205.001 9.43457L203.167 8.14785ZM205.926 12.5952L205.486 13.1086L203.654 11.823L205.099 10.135L206.107 10.842C206.102 11.409 206.043 11.9942 205.926 12.5952ZM204.756 15.8847L204.164 15.4693L205.585 13.8097L205.61 13.8269C205.395 14.5052 205.112 15.1931 204.756 15.8847ZM202.549 19.1485C202.23 19.5213 201.897 19.8742 201.557 20.2152L200.648 19.5771L202.068 17.9179L203.007 18.5766C202.856 18.7672 202.712 18.9589 202.549 19.1485ZM203.39 15.5581L201.969 17.2172L200.137 15.9316L201.557 14.2725L203.39 15.5581ZM201.895 13.8775L203.316 12.2178L205.148 13.5034L203.728 15.1631L201.895 13.8775ZM201.632 17.6116L200.211 19.2708L198.379 17.9851L199.799 16.3261L201.632 17.6116ZM199.873 19.6656L198.452 21.3258L196.62 20.0402L198.041 18.3799L199.873 19.6656ZM198.115 21.72L196.693 23.3805L194.861 22.0949L196.282 20.4346L198.115 21.72ZM198.889 21.6321L200.31 19.9719L201.177 20.58C200.622 21.1069 200.047 21.5905 199.455 22.0298L198.889 21.6321ZM199.015 22.3518C198.498 22.713 197.971 23.034 197.44 23.3247L198.551 22.0263L199.015 22.3518ZM202.406 17.5235L203.826 15.8642L204.512 16.3455C204.171 16.9558 203.782 17.5669 203.331 18.1723L202.406 17.5235ZM194.524 22.4882L196.357 23.7736L196.229 23.923C195.467 24.259 194.704 24.5251 193.953 24.7059L193.124 24.1241L194.524 22.4882ZM206.089 10.1983L205.437 9.74075L205.937 9.15601C206.01 9.49363 206.063 9.84005 206.089 10.1983ZM204.262 6.05546L202.732 7.84251L200.898 6.55543L202.39 4.81177C202.783 4.98286 203.163 5.17851 203.513 5.42485C203.786 5.61611 204.031 5.83064 204.262 6.05546ZM198.543 4.2485L198.193 4.65755L197.765 4.35716C198.026 4.31242 198.286 4.27229 198.543 4.2485ZM185.593 16.221L187.281 17.4054L185.88 19.0413L185.275 18.6168C185.282 17.8498 185.393 17.0451 185.593 16.221ZM185.3 19.266L185.542 19.436L185.329 19.6846C185.313 19.5479 185.31 19.4056 185.3 19.266ZM186.404 27.5815C184.469 28.6089 182.532 30.1805 181.991 30.6327L181.939 30.5965C182.287 30.0082 183.486 27.9186 184.102 25.9665C184.388 25.0658 184.613 23.7319 184.786 22.444C185.266 23.4005 185.96 24.2262 186.871 24.8655C187.792 25.5116 188.86 25.9146 190.018 26.0966C188.678 26.5694 187.3 27.1042 186.404 27.5815ZM192.409 24.9598L192.786 24.519L193.252 24.8461C192.968 24.8964 192.687 24.9338 192.409 24.9598Z" fill="white"/>
<defs>
<radialGradient id="paint0_radial" cx="0" cy="0" r="1" gradientUnits="userSpaceOnUse" gradientTransform="translate(171.894 7.13588) scale(4.39739 3.41836)">
<stop stop-color="#C0DB7E"/>
<stop offset="1" stop-color="#A6CE38"/>
</radialGradient>
<radialGradient id="paint1_radial" cx="0" cy="0" r="1" gradientUnits="userSpaceOnUse" gradientTransform="translate(180.108 8.6709) scale(2.94083 2.28608)">
<stop stop-color="#C0DB7E"/>
<stop offset="1" stop-color="#A6CE38"/>
</radialGradient>
<radialGradient id="paint2_radial" cx="0" cy="0" r="1" gradientUnits="userSpaceOnUse" gradientTransform="translate(175.148 8.5007) scale(6.47934 5.0368)">
<stop stop-color="#C0DB7E"/>
<stop offset="1" stop-color="#A6CE38"/>
</radialGradient>
</defs>
</svg>
