<svg width="138" height="138" viewBox="0 0 138 138" fill="none" xmlns="http://www.w3.org/2000/svg">
<circle cx="69" cy="69" r="69" fill="#FFCE5D"/>
<path fill-rule="evenodd" clip-rule="evenodd" d="M79.3977 137.222C77.4821 137.511 75.5408 137.722 73.577 137.851L122.814 25.8101C124.036 27.3304 125.195 28.9036 126.286 30.5257L79.3977 137.222ZM86.6314 135.727C116.198 127.935 138 101.014 138 69C138 57.3971 135.136 46.4631 130.077 36.8663L86.6314 135.727ZM0 69C0 99.1443 19.3302 124.774 46.2712 134.169L101.634 8.18976C91.9175 2.96454 80.805 0 69 0C30.8924 0 0 30.8924 0 69Z" fill="#F69522"/>
<g filter="url(#filter0_ii)">
<circle cx="69.5" cy="68.5" r="53.5" fill="url(#paint0_linear)"/>
</g>
<path d="M71.7975 73.1938C68.3903 74.5389 65.1932 77.8663 62.6662 81.1996L62.6664 81.1993C62.6664 81.1993 61.6339 81.4205 61.2209 80.4487C61.2209 80.4487 63.6811 72.2365 62.5201 68.3745C62.473 68.2098 56.8556 65.4321 56.8556 65.4321C56.8556 65.4321 61.3415 71.472 52.9319 87.6615C52.879 87.7633 57.0317 89.7973 57.2314 89.8952C57.4262 90.0024 61.4781 92.2304 61.5311 92.1283C69.9408 75.9389 77.4618 76.136 77.4618 76.136C77.4618 76.136 71.9594 73.1378 71.7975 73.1938Z" fill="white"/>
<path d="M71.7974 73.1938C69.126 74.2485 66.5839 76.5219 64.3924 79.0613C66.0478 79.7862 67.7945 80.2883 69.6198 80.5681C74.2231 76.0515 77.462 76.1363 77.462 76.1363C77.462 76.1363 71.9594 73.1378 71.7974 73.1938Z" fill="white"/>
<path d="M62.5205 68.3749C62.4733 68.2102 56.8559 65.4324 56.8559 65.4324C56.8559 65.4324 58.7878 68.0334 57.7394 74.3969C58.9993 75.7102 60.3922 76.8363 61.9112 77.7659C62.5366 75.0218 63.2564 70.8239 62.5205 68.3749Z" fill="white"/>
<path d="M62.0486 86.56L57.1911 84.0368C56.1569 83.4996 54.8711 83.9061 54.3338 84.9404L45.4898 101.966C44.9526 103 45.3591 104.286 46.3934 104.823L51.2509 107.347C52.2851 107.884 53.5709 107.477 54.1081 106.443L62.9523 89.4171C63.4891 88.3829 63.0826 87.0971 62.0486 86.56Z" fill="white"/>
<path d="M49.7988 104.204L58.6429 87.1786C59.1801 86.1444 60.4658 85.7376 61.5001 86.2749L57.191 84.0365C56.1568 83.4993 54.871 83.9059 54.3338 84.9402L45.4897 101.966C44.9525 103 45.359 104.286 46.3933 104.823L50.7025 107.062C49.6683 106.524 49.2615 105.239 49.7988 104.204Z" fill="white"/>
<path d="M54.4841 104.254L47.0647 100.4C46.0312 99.8627 44.7463 100.269 44.2094 101.303C43.6725 102.336 44.0789 103.621 45.1124 104.158L52.5317 108.012C53.5651 108.548 54.85 108.142 55.387 107.109C55.9239 106.075 55.5176 104.79 54.4841 104.254Z" fill="white"/>
<path d="M48.5185 103.541C49.0554 102.507 50.3402 102.101 51.3738 102.638L47.0647 100.4C46.0312 99.8627 44.7463 100.269 44.2094 101.303C43.6725 102.336 44.0788 103.621 45.1123 104.158L49.4214 106.396C48.3879 105.859 47.9816 104.575 48.5185 103.541Z" fill="white"/>
<path d="M62.0486 86.56L57.1911 84.0368C56.1569 83.4996 54.8711 83.9061 54.3338 84.9404L52.8986 87.7034L61.5169 92.1803L62.9523 89.4171C63.4891 88.3829 63.0826 87.0971 62.0486 86.56Z" fill="white"/>
<path d="M61.5 86.2751L57.1909 84.0367C56.1567 83.4995 54.871 83.906 54.3337 84.9403L52.8984 87.7034L57.2075 89.9417L58.6429 87.1786C59.18 86.1445 60.4659 85.7379 61.5 86.2751Z" fill="white"/>
<path d="M97.1919 61.4237C91.5053 72.3712 76.0673 80.3965 65.1198 74.7098C54.1723 69.0231 51.8612 51.778 57.5479 40.8306C63.2346 29.8831 76.2039 26.6099 87.1514 32.2965C98.0989 37.9832 102.879 50.4762 97.1919 61.4237Z" fill="white"/>
<path d="M64.6837 44.6628C69.7879 34.8367 80.7591 31.1948 90.8692 34.6636C89.7264 33.7838 88.4852 32.9894 87.1514 32.2965C76.2039 26.6099 63.2346 29.8831 57.5479 40.8306C51.8612 51.778 54.1722 69.0233 65.1197 74.7099C66.2796 75.3124 67.4902 75.7594 68.7337 76.067C60.8751 68.862 59.6697 54.3152 64.6837 44.6628Z" fill="white"/>
<path d="M66.6842 71.6982C62.5118 69.5308 59.5798 65.0563 58.4281 59.099C57.3165 53.3487 58.1134 47.1044 60.5597 42.395C65.244 33.3768 76.0035 30.3302 85.5869 35.3083C95.1703 40.2864 98.8647 50.8411 94.1802 59.8592C91.734 64.5684 87.0833 68.8111 81.7396 71.2081C76.2034 73.6914 70.8565 73.8655 66.6842 71.6982Z" fill="white"/>
<path d="M64.684 44.6622C68.1123 38.0624 74.1878 34.2533 80.8712 33.5135C72.6794 31.4737 64.486 34.8361 60.5599 42.3942C58.1137 47.1034 57.3169 53.348 58.4284 59.0982C59.3586 63.91 61.4507 67.7535 64.4194 70.1962C60.6487 62.5347 60.8035 52.1326 64.684 44.6622Z" fill="white"/>
<path d="M73.7103 67.0364L68.5938 72.5005C72.4298 73.7641 77.0151 73.3278 81.7391 71.2088C86.1653 69.2234 90.1146 65.9712 92.731 62.2369L78.472 64.5081C76.6478 64.7988 74.9727 65.6884 73.7103 67.0364Z" fill="white"/>
<path d="M79.9845 67.3019L89.7303 65.7496C90.8545 64.6498 91.8667 63.4705 92.7309 62.2371L78.4719 64.5083C76.648 64.7988 74.9727 65.6882 73.7104 67.0362L68.5938 72.5004C69.7034 72.8657 70.8757 73.0881 72.0959 73.1697L75.2232 69.8298C76.4855 68.482 78.1606 67.5925 79.9845 67.3019Z" fill="white"/>
<path d="M66.4573 63.2688L64.929 70.5968C61.6894 68.185 59.4098 64.1827 58.4271 59.0993C57.5062 54.3364 57.8961 49.2353 59.4468 44.9475L65.7878 57.9193C66.5988 59.5788 66.8344 61.4609 66.4573 63.2688Z" fill="white"/>
<path d="M64.4195 70.1962C61.6333 64.5354 60.9929 57.3794 62.4123 51.0143L59.4469 44.9477C57.8961 49.2355 57.5063 54.3367 58.4271 59.0995C59.3573 63.9113 61.4504 67.7535 64.4189 70.1961C64.4191 70.196 64.4192 70.1961 64.4195 70.1962Z" fill="white"/>
<path d="M62.6325 58.2884L58.2985 49.4224C58.5519 47.8702 58.9347 46.3639 59.4469 44.9477L65.7878 57.9195C66.5989 59.5789 66.8346 61.4609 66.4575 63.2687L64.9292 70.5968C63.9923 69.8991 63.1362 69.0679 62.3679 68.1165L63.3021 63.6374C63.679 61.8296 63.4433 59.9476 62.6325 58.2884Z" fill="white"/>
<path d="M62.4123 51.0143L59.4469 44.9477C58.9347 46.3639 58.5521 47.8699 58.2985 49.4224L61.7096 56.4004C61.786 54.5766 62.0218 52.766 62.4123 51.0143Z" fill="white"/>
<path d="M64.4188 70.1951C63.7643 68.8653 63.2309 67.4515 62.8119 65.986L62.3677 68.1165C62.994 68.8922 63.6796 69.5864 64.4188 70.1951Z" fill="white"/>
<path d="M82.7874 47.0696L94.9831 45.3995C93.3534 41.287 90.1334 37.67 85.5868 35.3082C81.0399 32.9463 76.2288 32.3922 71.927 33.4237L77.5732 44.3611C78.5621 46.2769 80.6511 47.3621 82.7874 47.0696Z" fill="white"/>
<path d="M80.8733 33.5146C77.8178 32.7539 74.762 32.7446 71.9275 33.4244L73.203 35.8953C75.5708 34.6121 78.1726 33.8133 80.8733 33.5146Z" fill="white"/>
<path d="M84.0566 43.3525C82.3476 43.5864 80.6765 42.7184 79.8851 41.1856L75.6265 32.9356C74.3649 32.9718 73.1261 33.1357 71.9269 33.4235L77.5731 44.3608C78.5622 46.2768 80.6512 47.3619 82.7874 47.0694L94.9832 45.3993C94.529 44.2531 93.9508 43.1456 93.2552 42.0927L84.0566 43.3525Z" fill="white"/>
<path d="M75.6264 32.9357C74.3648 32.972 73.126 33.1359 71.9268 33.4236L73.2022 35.8946C74.237 35.3339 75.3166 34.8664 76.4294 34.4917L75.6264 32.9357Z" fill="white"/>
<path d="M65.6407 49.6114C65.3427 49.4565 65.1145 49.185 65.0133 48.8647C64.9134 48.5451 64.9441 48.1919 65.0981 47.8953C65.253 47.5971 65.5245 47.369 65.8432 47.267C66.1626 47.1672 66.516 47.1978 66.8141 47.3526C67.1108 47.5067 67.3388 47.7781 67.4409 48.0969C67.5408 48.4165 67.5117 48.7706 67.3569 49.0686C67.2028 49.3652 66.9299 49.5925 66.611 49.6946C66.2908 49.7959 65.9375 49.7655 65.6407 49.6114Z" fill="#F69522"/>
<path d="M70.5691 52.1714C70.2711 52.0166 70.0429 51.745 69.9417 51.4248C69.8418 51.1051 69.8725 50.7519 70.0265 50.4553C70.1814 50.1572 70.4529 49.9291 70.7716 49.8271C71.091 49.7273 71.4444 49.7578 71.7425 49.9127C72.0392 50.0668 72.2671 50.3382 72.3693 50.657C72.4692 50.9766 72.4401 51.3306 72.2853 51.6287C72.1312 51.9253 71.8583 52.1526 71.5394 52.2547C71.2192 52.3559 70.866 52.3256 70.5691 52.1714Z" fill="#F69522"/>
<path d="M75.4975 54.7315C75.1995 54.5767 74.9713 54.3051 74.8701 53.9848C74.7702 53.6652 74.8009 53.312 74.9549 53.0154C75.1098 52.7172 75.3813 52.4891 75.7 52.3871C76.0194 52.2873 76.3728 52.3179 76.6709 52.4727C76.9676 52.6269 77.1955 52.8983 77.2977 53.217C77.3976 53.5367 77.3685 53.8907 77.2137 54.1887C77.0596 54.4853 76.7867 54.7127 76.4678 54.8147C76.1476 54.916 75.7944 54.8857 75.4975 54.7315Z" fill="#F69522"/>
<path d="M80.4261 57.2916C80.128 57.1368 79.8998 56.8652 79.7986 56.5449C79.6987 56.2253 79.7294 55.8721 79.8835 55.5755C80.0383 55.2774 80.3098 55.0493 80.6285 54.9473C80.9479 54.8474 81.3012 54.878 81.5994 55.0328C81.8963 55.1871 82.1241 55.4584 82.2262 55.7772C82.3261 56.0968 82.297 56.4508 82.1422 56.7488C81.9881 57.0454 81.7152 57.2728 81.3963 57.3749C81.076 57.476 80.7227 57.4457 80.4261 57.2916Z" fill="#F69522"/>
<path d="M85.3545 59.8517C85.0564 59.6968 84.8282 59.4253 84.727 59.105C84.6271 58.7854 84.6578 58.4322 84.8119 58.1356C84.9667 57.8374 85.2382 57.6093 85.5569 57.5073C85.8763 57.4075 86.2296 57.438 86.5278 57.5929C86.8247 57.7471 87.0525 58.0185 87.1546 58.3372C87.2545 58.6569 87.2254 59.0109 87.0706 59.3089C86.9165 59.6055 86.6436 59.8329 86.3247 59.9349C86.0044 60.0361 85.6512 60.0058 85.3545 59.8517Z" fill="#F69522"/>
<path d="M75.2212 43.2147C74.9231 43.0599 74.6949 42.7883 74.5937 42.468C74.4938 42.1484 74.5245 41.7952 74.6786 41.4986C74.8334 41.2005 75.1049 40.9724 75.4236 40.8704C75.743 40.7705 76.0964 40.8011 76.3945 40.956C76.6912 41.1101 76.9192 41.3815 77.0213 41.7003C77.1212 42.0199 77.0921 42.3739 76.9373 42.6719C76.7832 42.9685 76.5103 43.1959 76.1914 43.298C75.8711 43.3991 75.5179 43.3688 75.2212 43.2147Z" fill="#F69522"/>
<path d="M80.1496 45.7748C79.8515 45.62 79.6233 45.3484 79.5221 45.0281C79.4222 44.7085 79.4529 44.3553 79.6069 44.0587C79.7618 43.7605 80.0333 43.5324 80.352 43.4304C80.6714 43.3306 81.0248 43.3612 81.3229 43.516C81.6196 43.6702 81.8476 43.9416 81.9497 44.2603C82.0496 44.58 82.0205 44.934 81.8657 45.232C81.7116 45.5286 81.4387 45.756 81.1198 45.858C80.7995 45.9592 80.4463 45.9289 80.1496 45.7748Z" fill="#F69522"/>
<path d="M85.0781 48.3349C84.7801 48.1801 84.5518 47.9085 84.4506 47.5882C84.3508 47.2686 84.3814 46.9154 84.5355 46.6188C84.6904 46.3206 84.9618 46.0925 85.2806 45.9905C85.6 45.8907 85.9534 45.9213 86.2514 46.0761C86.5481 46.2303 86.7761 46.5017 86.8782 46.8205C86.9781 47.1401 86.949 47.4941 86.7942 47.7921C86.6402 48.0887 86.3672 48.3161 86.0483 48.4182C85.728 48.5193 85.3747 48.489 85.0781 48.3349Z" fill="#F69522"/>
<path d="M65.9163 61.1277C65.6182 60.9729 65.39 60.7013 65.2888 60.381C65.1889 60.0614 65.2196 59.7082 65.3736 59.4116C65.5285 59.1134 65.8 58.8853 66.1187 58.7833C66.4381 58.6835 66.7915 58.7141 67.0896 58.8689C67.3863 59.0231 67.6143 59.2945 67.7164 59.6132C67.8163 59.9329 67.7872 60.2869 67.6324 60.5849C67.4783 60.8815 67.2054 61.1089 66.8865 61.2109C66.5662 61.3121 66.213 61.2818 65.9163 61.1277Z" fill="#F69522"/>
<path d="M70.8447 63.6877C70.5466 63.5329 70.3184 63.2614 70.2172 62.9411C70.1173 62.6215 70.148 62.2683 70.302 61.9717C70.4569 61.6735 70.7284 61.4454 71.0471 61.3434C71.3665 61.2436 71.7199 61.2742 72.018 61.429C72.3147 61.5831 72.5427 61.8545 72.6448 62.1733C72.7447 62.4929 72.7156 62.8469 72.5608 63.145C72.4067 63.4416 72.1338 63.6689 71.8149 63.771C71.4946 63.8722 71.1414 63.8419 70.8447 63.6877Z" fill="#F69522"/>
<path d="M75.7732 66.2479C75.4751 66.093 75.2469 65.8215 75.1457 65.5012C75.0458 65.1816 75.0765 64.8284 75.2306 64.5318C75.3855 64.2336 75.6569 64.0055 75.9756 63.9035C76.295 63.8037 76.6485 63.8343 76.9465 63.9891C77.2432 64.1432 77.4712 64.4146 77.5733 64.7334C77.6732 65.0531 77.6441 65.4071 77.4893 65.7051C77.3353 66.0017 77.0623 66.2291 76.7434 66.3311C76.4231 66.4323 76.0698 66.4019 75.7732 66.2479Z" fill="#F69522"/>
<path d="M70.168 46.4176C69.8699 46.2628 69.6417 45.9912 69.5405 45.671C69.4406 45.3513 69.4713 44.9981 69.6254 44.7015C69.7803 44.4034 70.0517 44.1753 70.3704 44.0733C70.6898 43.9735 71.0433 44.004 71.3413 44.1589C71.638 44.313 71.866 44.5844 71.9681 44.9032C72.068 45.2228 72.0389 45.5768 71.8841 45.8749C71.7301 46.1715 71.4571 46.3988 71.1382 46.5009C70.8181 46.6021 70.4649 46.5718 70.168 46.4176Z" fill="#F69522"/>
<path d="M75.0965 48.9777C74.7985 48.8229 74.5702 48.5514 74.4691 48.2311C74.3692 47.9115 74.3998 47.5583 74.5539 47.2617C74.7088 46.9635 74.9803 46.7354 75.299 46.6334C75.6184 46.5336 75.9718 46.5642 76.2698 46.719C76.5666 46.8731 76.7945 47.1445 76.8967 47.4633C76.9965 47.7829 76.9675 48.137 76.8127 48.435C76.6586 48.7316 76.3857 48.9589 76.0667 49.061C75.7466 49.1623 75.3933 49.1319 75.0965 48.9777Z" fill="#F69522"/>
<path d="M80.0249 51.5378C79.7269 51.383 79.4986 51.1114 79.3975 50.7911C79.2976 50.4715 79.3282 50.1183 79.4823 49.8217C79.6372 49.5236 79.9087 49.2955 80.2274 49.1935C80.5468 49.0936 80.9 49.1242 81.1982 49.279C81.4951 49.4333 81.7229 49.7046 81.8251 50.0234C81.9249 50.343 81.8959 50.697 81.7411 50.995C81.587 51.2916 81.3141 51.519 80.9951 51.6211C80.6748 51.7222 80.3216 51.6919 80.0249 51.5378Z" fill="#F69522"/>
<path d="M84.9533 54.0979C84.6553 53.943 84.427 53.6715 84.3258 53.3512C84.226 53.0316 84.2566 52.6784 84.4107 52.3818C84.5656 52.0836 84.837 51.8555 85.1558 51.7535C85.4752 51.6537 85.8284 51.6842 86.1266 51.8391C86.4235 51.9933 86.6513 52.2646 86.7534 52.5834C86.8533 52.903 86.8243 53.2571 86.6694 53.5551C86.5154 53.8517 86.2425 54.079 85.9235 54.1811C85.6032 54.2823 85.25 54.252 84.9533 54.0979Z" fill="#F69522"/>
<path d="M65.631 55.1517C65.333 54.9969 65.1048 54.7254 65.0036 54.4051C64.9037 54.0854 64.9344 53.7323 65.0884 53.4357C65.2433 53.1375 65.5148 52.9094 65.8335 52.8074C66.1529 52.7076 66.5063 52.7382 66.8044 52.893C67.1011 53.0471 67.329 53.3185 67.4312 53.6373C67.5311 53.9569 67.502 54.3109 67.3472 54.609C67.1931 54.9056 66.9202 55.1329 66.6013 55.235C66.2811 55.3362 65.9279 55.3059 65.631 55.1517Z" fill="#F69522"/>
<path d="M70.5596 57.7119C70.2615 57.557 70.0333 57.2855 69.9321 56.9652C69.8322 56.6456 69.8629 56.2924 70.017 55.9958C70.1718 55.6976 70.4433 55.4695 70.762 55.3675C71.0814 55.2677 71.4348 55.2983 71.7329 55.4531C72.0296 55.6072 72.2576 55.8786 72.3597 56.1974C72.4596 56.517 72.4305 56.8711 72.2757 57.1691C72.1217 57.4657 71.8487 57.693 71.5298 57.7951C71.2097 57.8964 70.8563 57.866 70.5596 57.7119Z" fill="#F69522"/>
<path d="M75.488 60.2719C75.1899 60.1171 74.9617 59.8455 74.8605 59.5253C74.7606 59.2056 74.7913 58.8524 74.9454 58.5558C75.1002 58.2577 75.3717 58.0296 75.6904 57.9276C76.0098 57.8278 76.3631 57.8583 76.6613 58.0132C76.9582 58.1674 77.186 58.4387 77.2881 58.7575C77.388 59.0771 77.3589 59.4311 77.2041 59.7292C77.05 60.0258 76.7771 60.2531 76.4582 60.3552C76.1379 60.4564 75.7847 60.4261 75.488 60.2719Z" fill="#F69522"/>
<path d="M80.4164 62.832C80.1183 62.6772 79.8901 62.4056 79.7889 62.0853C79.689 61.7657 79.7197 61.4125 79.8737 61.1159C80.0286 60.8177 80.3001 60.5896 80.6188 60.4876C80.9382 60.3878 81.2915 60.4183 81.5897 60.5732C81.8865 60.7274 82.1144 60.9988 82.2165 61.3175C82.3164 61.6372 82.2873 61.9912 82.1325 62.2892C81.9784 62.5858 81.7055 62.8132 81.3866 62.9152C81.0663 63.0164 80.7131 62.9861 80.4164 62.832Z" fill="#F69522"/>
<defs>
<filter id="filter0_ii" x="13" y="14" width="114" height="111" filterUnits="userSpaceOnUse" color-interpolation-filters="sRGB">
<feFlood flood-opacity="0" result="BackgroundImageFix"/>
<feBlend mode="normal" in="SourceGraphic" in2="BackgroundImageFix" result="shape"/>
<feColorMatrix in="SourceAlpha" type="matrix" values="0 0 0 0 0 0 0 0 0 0 0 0 0 0 0 0 0 0 127 0" result="hardAlpha"/>
<feOffset dx="4" dy="3"/>
<feGaussianBlur stdDeviation="3.5"/>
<feComposite in2="hardAlpha" operator="arithmetic" k2="-1" k3="1"/>
<feColorMatrix type="matrix" values="0 0 0 0 0.508333 0 0 0 0 0.278097 0 0 0 0 0.0042361 0 0 0 0.41 0"/>
<feBlend mode="normal" in2="shape" result="effect1_innerShadow"/>
<feColorMatrix in="SourceAlpha" type="matrix" values="0 0 0 0 0 0 0 0 0 0 0 0 0 0 0 0 0 0 127 0" result="hardAlpha"/>
<feOffset dx="-3" dy="-1"/>
<feGaussianBlur stdDeviation="2"/>
<feComposite in2="hardAlpha" operator="arithmetic" k2="-1" k3="1"/>
<feColorMatrix type="matrix" values="0 0 0 0 0.833333 0 0 0 0 0.46498 0 0 0 0 0.0104166 0 0 0 1 0"/>
<feBlend mode="normal" in2="effect1_innerShadow" result="effect2_innerShadow"/>
</filter>
<linearGradient id="paint0_linear" x1="69.5" y1="15" x2="69.5" y2="122" gradientUnits="userSpaceOnUse">
<stop stop-color="#FAAE2E"/>
<stop offset="1" stop-color="#FCB650"/>
</linearGradient>
</defs>
</svg>
